# xmcd
#
# Track frame offsets: 
#        150
#        17632
#        31462
#        40002
#        50782
#        66365
#        78045
#        89310
#        102057
#        110680
#        117747
#        126440
#
# Disc length: 1840 seconds
#
# Revision: 2
# Processed by: cddbd v1.5.2PL0 Copyright (c) Steve Scherf et al.
# Submitted via: ExactAudioCopy v0.95b4
#
DISCID=a1072e0c
DTITLE=Nelson, Willie - Who'll Buy My Memories - Disc 2
DYEAR=1992
DGENRE=Country
TTITLE0=Summer Of Roses - December Day
TTITLE1=Pretend I Never Happened
TTITLE2=Slow Down Old World
TTITLE3=Opportunity To Cry
TTITLE4=I'm Falling In Love Again
TTITLE5=If You Could Only See
TTITLE6=I'd Rather YOu Didn't Love Me
TTITLE7=What Can You Do To Me Now
TTITLE8=Buddy
TTITLE9=Remember The Good Times
TTITLE10=Wake Me When It's Over
TTITLE11=Home Hotel
EXTD=
EXTT0=
EXTT1=
EXTT2=
EXTT3=
EXTT4=
EXTT5=
EXTT6=
EXTT7=
EXTT8=
EXTT9=
EXTT10=
EXTT11=
PLAYORDER=
